#!OML:ASF H:\LiuWeirdWalks\Patient Classification 1\Patient 1\Session 1\male.ASF
:FULLY-SPECIFIED
:DEGREES
339
root 1.85409 19.8345 -0.683419 3.2661 3.40916 -11.4116
lowerback 13.8998 1.16026 3.57038
upperback -0.578252 2.56879 4.97176
thorax -8.5339 1.2101 2.77493
lowerneck -24.3132 -0.168278 5.04016
upperneck 22.7254 -1.03231 -3.94082
head 11.3674 -0.541561 -2.46545
rclavicle -8.10048e-015 -3.80673e-014
rhumerus -57.1338 10.38 -77.835
rradius 54.0828
rwrist -14.731
rhand -15.1323 3.03407
rfingers 7.12502
rthumb 11.0372 -26.6557
lclavicle -8.10048e-015 -3.80673e-014
lhumerus -46.5813 -9.6636 84.2327
lradius 48.1769
lwrist 10.7579
lhand -16.4608 -5.22547
lfingers 7.12502
lthumb 9.75564 24.5286
rfemur -13.7973 -10.0084 21.3859
rtibia 64.7403
rfoot -2.4432 -14.5497
rtoes -7.08115
lfemur -17.6882 -0.359371 -14.3679
ltibia 32.975
lfoot -5.99387 13.6724
ltoes -16.5029
340
root 1.84068 19.7886 -0.432664 3.32983 3.90529 -11.4643
lowerback 13.5243 1.10166 3.46296
upperback -0.628409 2.44928 4.94956
thorax -8.37405 1.15857 2.84086
lowerneck -24.1408 -0.291282 4.8889
upperneck 22.8774 -1.1953 -3.73394
head 11.3865 -0.597898 -2.3911
rclavicle 3.26752e-014 5.78463e-014
rhumerus -56.7321 9.34626 -77.7919
rradius 52.1223
rwrist -14.2849
rhand -15.1182 3.01907
rfingers 7.12502
rthumb 11.0507 -26.67
lclavicle 3.26752e-014 5.78463e-014
lhumerus -46.983 -9.22563 83.9055
lradius 47.893
lwrist 10.8629
lhand -16.5188 -5.15839
lfingers 7.12502
lthumb 9.69962 24.5983
rfemur -12.7626 -9.89475 21.7142
rtibia 63.7818
rfoot -2.691 -15.0755
rtoes -6.83674
lfemur -18.4657 -0.813783 -14.2301
ltibia 30.0246
lfoot -7.10694 14.4067
ltoes -17.0454
341
root 1.82998 19.7283 -0.180869 3.37538 4.37802 -11.5834
lowerback 13.1337 1.03491 3.43577
upperback -0.670628 2.33248 4.94769
thorax -8.19449 1.10518 2.88189
lowerneck -23.9884 -0.403394 4.75035
upperneck 23.0448 -1.34185 -3.55476
head 11.4165 -0.649337 -2.32702
rclavicle -2.2003e-014 -4.02042e-014
rhumerus -56.3356 8.29765 -77.6985
rradius 50.2295
rwrist -13.7823
rhand -15.1989 3.05216
rfingers 7.12502
rthumb 10.9729 -26.6411
lclavicle -2.2003e-014 -4.02042e-014
lhumerus -47.3541 -8.76106 83.5513
lradius 47.5689
lwrist 10.9388
lhand -16.528 -5.14831
lfingers 7.12502
lthumb 9.6908 24.6088
rfemur -11.8022 -9.78439 22.1128
rtibia 62.9638
rfoot -2.90733 -15.5005
rtoes -6.65536
lfemur -19.2554 -1.31838 -14.0038
ltibia 27.348
lfoot -7.94834 14.9775
ltoes -17.5438
342
root 1.82266 19.6534 0.0706108 3.38009 4.79788 -11.7894
lowerback 12.7526 0.964969 3.51256
upperback -0.697319 2.22904 4.97089
thorax -8.00111 1.05427 2.88726
lowerneck -23.8076 -0.45406 4.74702
upperneck 23.1436 -1.41565 -3.50565
head 11.4166 -0.674126 -2.31992
rclavicle 2.9445e-015 -8.29926e-015
rhumerus -55.9435 7.253 -77.5632
rradius 48.4279
rwrist -13.3011
rhand -15.3412 3.08169
rfingers 7.12502
rthumb 10.8357 -26.6188
lclavicle 2.9445e-015 -8.29926e-015
lhumerus -47.6957 -8.25015 83.1606
lradius 47.2211
lwrist 10.9548
lhand -16.4569 -5.13428
lfingers 7.12502
lthumb 9.75934 24.6196
rfemur -10.9084 -9.65963 22.5955
rtibia 62.2981
rfoot -3.07391 -15.8363
rtoes -6.55555
lfemur -20.0587 -1.79575 -13.6778
ltibia 25.0734
lfoot -8.53131 15.384
ltoes -18.0229
343
root 1.81855 19.5642 0.320914 3.31109 5.12379 -12.0833
lowerback 12.4166 0.914019 3.69255
upperback -0.700044 2.16904 5.01991
thorax -7.80652 1.02071 2.85234
lowerneck -23.5712 -0.480901 4.80253
upperneck 23.1657 -1.45489 -3.52955
head 11.3776 -0.688718 -2.34153
rclavicle -2.01332e-014 3.86885e-014
rhumerus -55.575 6.20248 -77.3795
rradius 46.7417
rwrist -12.8872
rhand -15.494 3.07092
rfingers 7.12502
rthumb 10.6882 -26.6372
lclavicle -2.01332e-014 3.86885e-014
lhumerus -48.0128 -7.7175 82.7515
lradius 46.8649
lwrist 10.9049
lhand -16.3109 -5.11797
lfingers 7.12502
lthumb 9.90018 24.6292
rfemur -10.0529 -9.49565 23.1551
rtibia 61.7985
rfoot -3.21611 -16.1059
rtoes -6.54586
lfemur -20.8437 -2.16503 -13.2634
ltibia 23.2992
lfoot -8.93807 15.6042
ltoes -18.4495
344
root 1.81749 19.461 0.569896 3.154 5.33964 -12.4318
lowerback 12.1413 0.882993 3.94042
upperback -0.679703 2.14752 5.07972
thorax -7.6211 1.00343 2.78246
lowerneck -23.2669 -0.509719 4.84583
upperneck 23.154 -1.49079 -3.5464
head 11.3132 -0.702245 -2.35614
rclavicle 1.48933e-015 -3.14204e-014
rhumerus -55.2477 5.16568 -77.1771
rradius 45.1798
rwrist -12.5957
rhand -15.6165 3.04524
rfingers 7.12502
rthumb 10.5701 -26.669
lclavicle 1.48933e-015 -3.14204e-014
lhumerus -48.3216 -7.1657 82.3114
lradius 46.5072
lwrist 10.7926
lhand -16.1072 -5.14114
lfingers 7.12502
lthumb 10.0967 24.5966
rfemur -9.21706 -9.29957 23.7434
rtibia 61.4777
rfoot -3.3704 -16.3221
rtoes -6.60908
lfemur -21.5728 -2.38113 -12.8145
ltibia 22.075
lfoot -9.17919 15.6266
ltoes -18.826
345
root 1.8184 19.3433 0.816115 2.89656 5.44111 -12.8118
lowerback 11.9492 0.879097 4.22647
upperback -0.627569 2.17071 5.14998
thorax -7.44923 1.00692 2.6932
lowerneck -22.9285 -0.533446 4.88538
upperneck 23.1189 -1.51255 -3.57636
head 11.234 -0.711691 -2.3716
rclavicle 3.27451e-014 1.05604e-014
rhumerus -54.9567 4.14276 -76.9452
rradius 43.7526
rwrist -12.4239
rhand -15.6661 3.01775
rfingers 7.12502
rthumb 10.5223 -26.6989
lclavicle 3.27451e-014 1.05604e-014
lhumerus -48.6054 -6.60409 81.859
lradius 46.1532
lwrist 10.6353
lhand -15.9183 -5.22794
lfingers 7.12502
lthumb 10.279 24.5009
rfemur -8.396 -9.07308 24.3388
rtibia 61.3533
rfoot -3.59314 -16.529
rtoes -6.75864
lfemur -22.1986 -2.42943 -12.3606
ltibia 21.3813
lfoot -9.24855 15.4099
ltoes -19.1003
346
root 1.8203 19.2117 1.05971 2.53979 5.43615 -13.193
lowerback 11.8489 0.893874 4.50838
upperback -0.542752 2.22185 5.22406
thorax -7.29527 1.02461 2.60461
lowerneck -22.5617 -0.560267 4.89219
upperneck 23.0731 -1.53326 -3.57765
head 11.1462 -0.719879 -2.37013
rclavicle -1.9102e-015 -2.98177e-015
rhumerus -54.7022 3.16867 -76.7151
rradius 42.4803
rwrist -12.3876
rhand -15.6387 2.94635
rfingers 7.12502
rthumb 10.5486 -26.7689
lclavicle -1.9102e-015 -2.98177e-015
lhumerus -48.8709 -6.03367 81.3899
lradius 45.82
lwrist 10.4542
lhand -15.7598 -5.32302
lfingers 7.12502
lthumb 10.4318 24.3982
rfemur -7.58211 -8.8422 24.9044
rtibia 61.4346
rfoot -3.9202 -16.7366
rtoes -6.98638
lfemur -22.6688 -2.32825 -11.9297
ltibia 21.1447
lfoot -9.13363 14.8969
ltoes -19.3598
347
root 1.82248 19.0663 1.30044 2.09456 5.34725 -13.5196
lowerback 11.8379 0.92382 4.72772
upperback -0.424967 2.28773 5.28986
thorax -7.15861 1.05203 2.53891
lowerneck -22.2542 -0.629869 4.74437
upperneck 23.151 -1.59717 -3.45101
head 11.1167 -0.74322 -2.30628
rclavicle 3.04451e-014 5.70015e-014
rhumerus -54.4909 2.25712 -76.4991
rradius 41.3718
rwrist -12.4372
rhand -15.5605 2.88052
rfingers 7.12502
rthumb 10.6241 -26.8309
lclavicle 3.04451e-014 5.70015e-014
lhumerus -49.1151 -5.47887 80.9245
lradius 45.5195
lwrist 10.2866
lhand -15.6698 -5.42233
lfingers 7.12502
lthumb 10.5187 24.2945
rfemur -6.7855 -8.64145 25.3757
rtibia 61.7302
rfoot -4.35899 -16.9628
rtoes -7.19677
lfemur -22.9474 -2.176 -11.5577
ltibia 21.26
lfoot -8.83908 14.0697
ltoes -19.6393
348
root 1.82354 18.907 1.53875 1.559 5.18637 -13.7909
lowerback 11.9187 0.96765 4.87126
upperback -0.283266 2.36701 5.35408
thorax -7.05104 1.08878 2.51079
lowerneck -21.9119 -0.68429 4.60962
upperneck 23.1687 -1.63586 -3.3536
head 11.0588 -0.758736 -2.24959
rclavicle 1.29769e-014 -3.58806e-014
rhumerus -54.3439 1.44045 -76.3156
rradius 40.4434
rwrist -12.5695
rhand -15.4792 2.74239
rfingers 7.12502
rthumb 10.7025 -26.965
lclavicle 1.29769e-014 -3.58806e-014
lhumerus -49.3577 -4.95771 80.4837
lradius 45.2486
lwrist 10.1229
lhand -15.7073 -5.5266
lfingers 7.12502
lthumb 10.4825 24.192
rfemur -5.99961 -8.48496 25.7552
rtibia 62.2335
rfoot -4.90471 -17.227
rtoes -7.36894
lfemur -23.0249 -2.08345 -11.2053
ltibia 21.648
lfoot -8.36361 12.91
ltoes -19.9932
349
root 1.82337 18.734 1.77623 0.947113 4.95879 -14.0098
lowerback 12.0701 1.0222 4.93752
upperback -0.115526 2.45373 5.41819
thorax -6.95847 1.13201 2.52363
lowerneck -21.5809 -0.72733 4.47162
upperneck 23.1957 -1.65644 -3.26522
head 11.0074 -0.767544 -2.19332
rclavicle 9.50439e-016 -1.39646e-014
rhumerus -54.2617 0.745728 -76.1917
rradius 39.7077
rwrist -12.7348
rhand -15.4377 2.56347
rfingers 7.12502
rthumb 10.7425 -27.1419
lclavicle 9.50439e-016 -1.39646e-014
lhumerus -49.5853 -4.48621 80.0767
lradius 45.0157
lwrist 10.0048
lhand -15.8573 -5.6007
lfingers 7.12502
lthumb 10.3378 24.1252
rfemur -5.22595 -8.38175 26.0405
rtibia 62.9163
rfoot -5.51646 -17.5277
rtoes -7.54471
lfemur -22.9858 -2.10866 -10.8584
ltibia 22.3719
lfoot -7.69784 11.4559
ltoes -20.101
350
root 1.82273 18.5491 2.01408 0.272769 4.67523 -14.1957
lowerback 12.2618 1.08428 4.96101
upperback 0.0727192 2.54638 5.48383
thorax -6.86849 1.17972 2.56032
lowerneck -21.2599 -0.738798 4.38259
upperneck 23.192 -1.63621 -3.23056
head 10.9472 -0.760914 -2.15817
rclavicle 8.67198e-015 3.99557e-014
rhumerus -54.2445 0.184515 -76.1371
rradius 39.1451
rwrist -12.9075
rhand -15.4629 2.45927
rfingers 7.12502
rthumb 10.7182 -27.2473
lclavicle 8.67198e-015 3.99557e-014
lhumerus -49.8121 -4.07348 79.7069
lradius 44.8311
lwrist 9.90079
lhand -16.0978 -5.67843
lfingers 7.12502
lthumb 10.1058 24.0589
rfemur -4.45657 -8.33651 26.2468
rtibia 63.7286
rfoot -6.15984 -17.8637
rtoes -7.70397
lfemur -22.9668 -2.15589 -10.5371
ltibia 23.5753
lfoot -6.61557 8.78076
ltoes -19.4026
351
root 1.82288 18.3598 2.2531 -0.451886 4.35261 -14.3696
lowerback 12.4908 1.1512 4.98091
upperback 0.268688 2.64823 5.55806
thorax -6.79205 1.23201 2.60587
lowerneck -20.9268 -0.728069 4.33958
upperneck 23.184 -1.5864 -3.24707
head 10.8833 -0.743265 -2.14475
rclavicle -1.48095e-014 -1.74931e-014
rhumerus -54.301 -0.242278 -76.139
rradius 38.7406
rwrist -13.0517
rhand -15.5544 2.4728
rfingers 7.12502
rthumb 10.63 -27.2383
lclavicle -1.48095e-014 -1.74931e-014
lhumerus -50.037 -3.72831 79.389
lradius 44.6867
lwrist 9.79108
lhand -16.3857 -5.72937
lfingers 7.12502
lthumb 9.82807 24.0213
rfemur -3.68035 -8.3452 26.4017
rtibia 64.6106
rfoot -6.77827 -18.2308
rtoes -7.80596
lfemur -23.0141 -1.88962 -10.3713
ltibia 25.4186
lfoot -5.69892 6.1762
ltoes -17.4767
352
root 1.82483 18.1736 2.49191 -1.19612 4.03319 -14.5091
lowerback 12.774 1.21044 4.99894
upperback 0.441808 2.74549 5.62186
thorax -6.77007 1.28093 2.6412
lowerneck -20.602 -0.698651 4.31496
upperneck 23.2765 -1.52073 -3.24807
head 10.859 -0.713334 -2.12873
rclavicle 2.44132e-014 5.05907e-014
rhumerus -54.4221 -0.5656 -76.1969
rradius 38.4421
rwrist -13.1179
rhand -15.7012 2.64798
rfingers 7.12502
rthumb 10.4884 -27.0704
lclavicle 2.44132e-014 5.05907e-014
lhumerus -50.2695 -3.45851 79.1125
lradius 44.5779
lwrist 9.64687
lhand -16.6721 -5.78042
lfingers 7.12502
lthumb 9.55177 23.9831
rfemur -2.92922 -8.41153 26.4938
rtibia 65.5425
rfoot -7.35753 -18.6254
rtoes -7.80723
lfemur -23.2429 -1.47834 -10.3594
ltibia 27.9901
lfoot -5.08497 3.9932
ltoes -14.4507
